<?xml version="1.0" standalone="no"?>
<!DOCTYPE svg PUBLIC "-//W3C//DTD SVG 20010904//EN"
 "http://www.w3.org/TR/2001/REC-SVG-20010904/DTD/svg10.dtd">
<svg version="1.0" xmlns="http://www.w3.org/2000/svg"
 width="1080.000000pt" height="1080.000000pt" viewBox="0 0 1080.000000 1080.000000"
 preserveAspectRatio="xMidYMid meet">

<g transform="translate(0.000000,1080.000000) scale(0.100000,-0.100000)"
fill="#000000" stroke="none">
<path d="M4090 9070 l0 -900 -535 0 -535 0 0 -765 0 -765 535 0 534 0 4 -2062
c3 -2248 0 -2108 58 -2393 44 -211 142 -456 249 -620 401 -612 1140 -887 2247
-837 308 14 495 32 708 67 208 35 290 57 288 75 -5 42 -216 1495 -217 1497 0
1 -22 -3 -47 -7 -164 -31 -427 -54 -609 -54 -211 1 -287 13 -407 69 -117 53
-208 174 -256 336 l-21 74 -3 1928 -3 1927 705 0 705 0 -2 763 -3 762 -702 3
-703 2 0 900 0 900 -995 0 -995 0 0 -900z"/>
</g>
</svg>
